<svg width="128" height="128" viewBox="0 0 128 128" fill="none" xmlns="http://www.w3.org/2000/svg">
<g clip-path="url(#clip0_8_2)">
<rect width="128" height="128" fill="#0C0B14"/>
<path d="M49.1193 61.13L40.2093 71.03V92H32.6493V29.18H40.2093V62.57H40.4793L49.4793 51.68L68.4693 29.18H77.7393L54.3393 56.09L79.3593 92H69.9993L49.1193 61.13ZM94.4392 93.08C92.5192 93.08 91.1092 92.6 90.2092 91.64C89.3692 90.68 88.9492 89.42 88.9492 87.86V86.69C88.9492 85.13 89.3692 83.87 90.2092 82.91C91.1092 81.95 92.5192 81.47 94.4392 81.47C96.3592 81.47 97.7392 81.95 98.5792 82.91C99.4792 83.87 99.9292 85.13 99.9292 86.69V87.86C99.9292 89.42 99.4792 90.68 98.5792 91.64C97.7392 92.6 96.3592 93.08 94.4392 93.08Z" fill="url(#paint0_linear_8_2)"/>
<g filter="url(#filter0_f_8_2)">
<circle cx="64" cy="64" r="40" fill="url(#paint1_linear_8_2)" fill-opacity="0.3"/>
</g>
</g>
<defs>
<filter id="filter0_f_8_2" x="-76" y="-76" width="280" height="280" filterUnits="userSpaceOnUse" color-interpolation-filters="sRGB">
<feFlood flood-opacity="0" result="BackgroundImageFix"/>
<feBlend mode="normal" in="SourceGraphic" in2="BackgroundImageFix" result="shape"/>
<feGaussianBlur stdDeviation="50" result="effect1_foregroundBlur_8_2"/>
</filter>
<linearGradient id="paint0_linear_8_2" x1="33.5" y1="43" x2="90" y2="72.5" gradientUnits="userSpaceOnUse">
<stop stop-color="#A855F7"/>
<stop offset="1" stop-color="#EC4899"/>
</linearGradient>
<linearGradient id="paint1_linear_8_2" x1="137.846" y1="-11.6923" x2="-1.53846" y2="104" gradientUnits="userSpaceOnUse">
<stop stop-color="#A855F7"/>
<stop offset="1" stop-color="#EC4899"/>
</linearGradient>
<clipPath id="clip0_8_2">
<rect width="128" height="128" fill="white"/>
</clipPath>
</defs>
</svg>
